# xmcd
#
# Track frame offsets:
#  150
#  8940
#  20378
#  39104
#  51248
#  64336
#  82796
#  93495
#  105402
#  121509
#
# Disc length: 1801 seconds
#
# Revision: 0
# Processed by: cddbd v1.5.2PL0 Copyright (c) Steve Scherf et al.
# Submitted via: AltoMP3_Maker 3.0
#
DISCID=6907070a
DTITLE=C. W. McCall - C. W. McCall and Co.
DYEAR=1900
DGENRE=
TTITLE0=Outlaws And Lone Star Beer
TTITLE1=Wheels Of Fortune
TTITLE2=City Of New Orleans
TTITLE3=The Little Things In Life
TTITLE4=The Cowboy
TTITLE5=Milton
TTITLE6=Flowers On The Wall
TTITLE7=Silver Cloud Breakdown
TTITLE8=I Wish There Was More That I Could Do
TTITLE9=Hobo's Lullaby
EXTD=
EXTT0=
EXTT1=
EXTT2=
EXTT3=
EXTT4=
EXTT5=
EXTT6=
EXTT7=
EXTT8=
EXTT9=
PLAYORDER=
